<svg xmlns="http://www.w3.org/2000/svg" height="2px" width="4px" version="1.1"><polyline points="1.215,0.405,1.295,0.405" stroke="black" stroke-width="1" fill="none" />
<polyline points="1.215,0.475,1.295,0.475" stroke="black" stroke-width="1" fill="none" />
<polyline points="2.66,0.525,3.07,0.525" stroke="black" stroke-width="1" fill="none" />
<polyline points="0.34,0.54,0.745,0.54" stroke="black" stroke-width="1" fill="none" />
<polyline points="1.785,0.54,2.19,0.54" stroke="black" stroke-width="1" fill="none" />
<polyline points="1.215,0.555,1.295,0.555" stroke="black" stroke-width="1" fill="none" />
<polyline points="2.66,0.62,2.975,0.62" stroke="black" stroke-width="1" fill="none" />
<polyline points="0.43,0.635,0.65,0.635" stroke="black" stroke-width="1" fill="none" />
<polyline points="1.88,0.635,2.095,0.635" stroke="black" stroke-width="1" fill="none" />
<polyline points="2.66,0.705,2.975,0.705" stroke="black" stroke-width="1" fill="none" />
<polyline points="2.77,0.77,2.975,0.77" stroke="black" stroke-width="1" fill="none" />
<polyline points="0.43,0.85,0.65,0.85" stroke="black" stroke-width="1" fill="none" />
<polyline points="1.88,0.85,2.095,0.85" stroke="black" stroke-width="1" fill="none" />
<polyline points="2.77,0.85,2.975,0.85" stroke="black" stroke-width="1" fill="none" />
<polyline points="0.43,0.945,0.745,0.945" stroke="black" stroke-width="1" fill="none" />
<polyline points="1.215,0.945,1.295,0.945" stroke="black" stroke-width="1" fill="none" />
<polyline points="1.88,0.945,2.19,0.945" stroke="black" stroke-width="1" fill="none" />
<polyline points="2.66,0.945,3.07,0.945" stroke="black" stroke-width="1" fill="none" />
<polyline points="0.34,1.11,0.42,1.11" stroke="black" stroke-width="1" fill="none" />
<polyline points="1.785,1.11,1.865,1.11" stroke="black" stroke-width="1" fill="none" />
<polyline points="0.34,0.54,0.34,1.11" stroke="black" stroke-width="1" fill="none" />
<polyline points="0.42,0.65,0.42,0.84" stroke="black" stroke-width="1" fill="none" />
<polyline points="0.42,0.96,0.42,1.11" stroke="black" stroke-width="1" fill="none" />
<polyline points="0.66,0.65,0.66,0.84" stroke="black" stroke-width="1" fill="none" />
<polyline points="0.745,0.54,0.745,0.945" stroke="black" stroke-width="1" fill="none" />
<polyline points="1.215,0.405,1.215,0.475" stroke="black" stroke-width="1" fill="none" />
<polyline points="1.215,0.555,1.215,0.945" stroke="black" stroke-width="1" fill="none" />
<polyline points="1.295,0.405,1.295,0.475" stroke="black" stroke-width="1" fill="none" />
<polyline points="1.295,0.555,1.295,0.945" stroke="black" stroke-width="1" fill="none" />
<polyline points="1.785,0.54,1.785,1.11" stroke="black" stroke-width="1" fill="none" />
<polyline points="1.865,0.65,1.865,0.84" stroke="black" stroke-width="1" fill="none" />
<polyline points="1.865,0.96,1.865,1.11" stroke="black" stroke-width="1" fill="none" />
<polyline points="2.11,0.65,2.11,0.84" stroke="black" stroke-width="1" fill="none" />
<polyline points="2.19,0.54,2.19,0.945" stroke="black" stroke-width="1" fill="none" />
<polyline points="2.66,0.525,2.66,0.62" stroke="black" stroke-width="1" fill="none" />
<polyline points="2.66,0.705,2.66,0.945" stroke="black" stroke-width="1" fill="none" />
<polyline points="2.755,0.785,2.755,0.84" stroke="black" stroke-width="1" fill="none" />
<polyline points="2.985,0.635,2.985,0.69" stroke="black" stroke-width="1" fill="none" />
<polyline points="2.985,0.785,2.985,0.84" stroke="black" stroke-width="1" fill="none" />
<polyline points="3.07,0.525,3.07,0.945" stroke="black" stroke-width="1" fill="none" />
</svg>